<svg xmlns="http://www.w3.org/2000/svg" width="1086" height="1448" viewBox="0 0 1086 1448">
  <defs><filter id="noise"><feTurbulence type="fractalNoise" baseFrequency="0.018" numOctaves="3" seed="22"/><feColorMatrix type="saturate" values="0"/><feComponentTransfer><feFuncA type="table" tableValues="0 0.08"/></feComponentTransfer><feBlend in="SourceGraphic" mode="multiply"/></filter><filter id="shadow" x="-20%" y="-20%" width="140%" height="140%"><feDropShadow dx="0" dy="8" stdDeviation="8" flood-color="#7d6b4c" flood-opacity="0.16"/></filter><style>.ink{fill:#0b5a4a;font-family:"Microsoft YaHei","PingFang SC",sans-serif;font-weight:900}.orange{fill:#d95a32;font-family:"Microsoft YaHei","PingFang SC",sans-serif;font-weight:900}.line{fill:none;stroke:#0b6b57;stroke-width:7;stroke-linecap:round;stroke-linejoin:round}.doodle{fill:none;stroke:#7da06c;stroke-width:4;stroke-linecap:round;stroke-linejoin:round;opacity:.82}.accent{fill:none;stroke:#e06934;stroke-width:4;stroke-linecap:round;stroke-linejoin:round}</style></defs>
  <rect width="1086" height="1448" fill="#fbf3df" filter="url(#noise)"/>
  <text x="72" y="88" class="ink" font-size="44">爽活迹</text><text x="232" y="86" class="ink" font-size="28">Schoolwalk</text>
  <g transform="rotate(-3 430 132)" filter="url(#shadow)"><rect x="100" y="92" width="620" height="118" rx="8" fill="#e6d2af"/><text x="145" y="176" class="ink" font-size="76">今日</text><text x="330" y="176" class="orange" font-size="76">校园 Plog</text></g>
  <text x="250" y="300" class="ink" font-size="33">把一次出门，收进生活相册</text><path d="M320 316c150-12 310-12 470-1" class="accent"/>
  <path d="M390 420c-50 86-30 185 30 260s55 160-10 240 5 150 80 210" class="line"/>
  <g filter="url(#shadow)"><rect x="95" y="730" width="310" height="190" rx="22" fill="#fff8e9" opacity=".92"/></g>
  <path d="M80 330c-20 24-28 52-22 82M96 330c22 24 28 52 22 82M870 360c26 10 56 10 84 0M873 386c25 9 54 9 82 0M135 1320c38-26 76-20 112 10M880 1190c32-20 65-15 92 14" class="doodle"/>
  <text x="210" y="1348" class="ink" font-size="38">不卷步数，只记录一次出门回血</text><path d="M210 1366c190-14 480-14 690 0" class="accent"/>
</svg>
