<svg xmlns="http://www.w3.org/2000/svg" width="1086" height="1448" viewBox="0 0 1086 1448">
  <defs>
    <filter id="noise"><feTurbulence type="fractalNoise" baseFrequency="0.018" numOctaves="3" seed="12"/><feColorMatrix type="saturate" values="0"/><feComponentTransfer><feFuncA type="table" tableValues="0 0.08"/></feComponentTransfer><feBlend in="SourceGraphic" mode="multiply"/></filter>
    <filter id="shadow" x="-20%" y="-20%" width="140%" height="140%"><feDropShadow dx="0" dy="8" stdDeviation="8" flood-color="#7d6b4c" flood-opacity="0.16"/></filter>
    <style>.ink{fill:#0b5a4a;font-family:"Microsoft YaHei","PingFang SC",sans-serif;font-weight:900}.orange{fill:#d95a32;font-family:"Microsoft YaHei","PingFang SC",sans-serif;font-weight:900}.line{fill:none;stroke:#0b6b57;stroke-width:7;stroke-linecap:round;stroke-linejoin:round}.doodle{fill:none;stroke:#7da06c;stroke-width:4;stroke-linecap:round;stroke-linejoin:round;opacity:.82}.accent{fill:none;stroke:#e06934;stroke-width:4;stroke-linecap:round;stroke-linejoin:round}</style>
  </defs>
  <rect width="1086" height="1448" fill="#fbf3df" filter="url(#noise)"/>
  <text x="72" y="88" class="ink" font-size="44">爽活迹</text><text x="232" y="86" class="ink" font-size="28">Schoolwalk</text>
  <circle cx="410" cy="70" r="14" fill="none" stroke="#f5a51a" stroke-width="5"/><path d="M410 36v-18M410 122v-18M376 70h-18M462 70h-18M385 45l-12-12M435 95l12 12M435 45l12-12M385 95l-12 12" stroke="#f5a51a" stroke-width="5" stroke-linecap="round"/>
  <g transform="rotate(-3 420 132)" filter="url(#shadow)"><rect x="92" y="90" width="650" height="120" rx="8" fill="#e6d2af"/><text x="135" y="176" class="ink" font-size="78">出门</text><text x="330" y="176" class="orange" font-size="78">回血证明</text></g>
  <text x="238" y="300" class="ink" font-size="33">不卷步数，只记录一次出门回血</text><path d="M320 316c150-12 310-12 470-1" class="accent"/>
  <path d="M780 420c-70 82-70 175 0 258s66 165-8 245" class="line"/><path d="M790 922l-34 44-32-44" fill="none" stroke="#25342e" stroke-width="7" stroke-linecap="round" stroke-linejoin="round"/>
  <path d="M80 328c-20 24-27 50-21 80M96 327c22 24 28 50 22 80M930 1040c34-18 62-12 84 18M945 1090c22-28 54-38 88-22" class="doodle"/>
  <g filter="url(#shadow)"><rect x="45" y="1200" width="390" height="120" rx="18" fill="#fff8e9" opacity=".96"/><rect x="82" y="802" width="430" height="180" rx="20" fill="#fff8e9" opacity=".9"/><rect x="76" y="535" width="520" height="250" rx="24" fill="#fff8e9" opacity=".9"/></g>
  <text x="230" y="1348" class="ink" font-size="38">不卷步数，只记录一次出门回血</text><path d="M230 1366c180-14 430-14 640 0" class="accent"/>
</svg>
