<svg xmlns="http://www.w3.org/2000/svg" width="793" height="1983" viewBox="0 0 793 1983">
  <defs><filter id="noise"><feTurbulence type="fractalNoise" baseFrequency="0.018" numOctaves="3" seed="42"/><feColorMatrix type="saturate" values="0"/><feComponentTransfer><feFuncA type="table" tableValues="0 0.08"/></feComponentTransfer><feBlend in="SourceGraphic" mode="multiply"/></filter><filter id="shadow" x="-20%" y="-20%" width="140%" height="140%"><feDropShadow dx="0" dy="8" stdDeviation="8" flood-color="#7d6b4c" flood-opacity="0.16"/></filter><style>.ink{fill:#0b5a4a;font-family:"Microsoft YaHei","PingFang SC",sans-serif;font-weight:900}.orange{fill:#d95a32;font-family:"Microsoft YaHei","PingFang SC",sans-serif;font-weight:900}.line{fill:none;stroke:#172d2a;stroke-width:7;stroke-linecap:round;stroke-linejoin:round}.doodle{fill:none;stroke:#7da06c;stroke-width:3.5;stroke-linecap:round;stroke-linejoin:round;opacity:.82}.accent{fill:none;stroke:#e06934;stroke-width:4;stroke-linecap:round;stroke-linejoin:round}</style></defs>
  <rect width="793" height="1983" fill="#fbf3df" filter="url(#noise)"/>
  <text x="48" y="76" class="ink" font-size="40">爽活迹</text><text x="190" y="74" class="ink" font-size="24">Schoolwalk</text>
  <g transform="rotate(-3 330 120)" filter="url(#shadow)"><rect x="54" y="90" width="500" height="105" rx="8" fill="#e6d2af"/><text x="92" y="166" class="ink" font-size="66">校园</text><text x="250" y="166" class="orange" font-size="66">长图游记</text></g>
  <text x="142" y="250" class="ink" font-size="28">一路慢慢走，一路慢慢记</text><path d="M185 266c130-12 275-12 410 0" class="accent"/>
  <path d="M392 260c-40 130-28 250 12 380s22 250-36 372-40 250 32 380 82 230 12 330" class="line"/><path d="M440 1720l-34 48-32-48" fill="none" stroke="#172d2a" stroke-width="7" stroke-linecap="round" stroke-linejoin="round"/>
  <path d="M42 270c-18 22-24 48-19 76M58 270c20 22 25 48 20 76M610 300c20 12 44 12 66 0M612 324c18 11 43 11 64 0M100 1870c28-28 60-34 96-14M620 1870c34-30 70-32 108-8M565 1740h48v54h-48zM577 1740v-28h24v28" class="doodle"/>
  <g filter="url(#shadow)"><rect x="535" y="1740" width="210" height="140" rx="18" fill="#fff8e9" opacity=".94"/></g>
  <text x="150" y="1935" class="ink" font-size="26">不卷步数，只记录一次出门回血</text>
</svg>
