<svg xmlns="http://www.w3.org/2000/svg" width="1080" height="1440" viewBox="0 0 1080 1440">
  <rect width="1080" height="1440" fill="#fff8e8"/>
  <g opacity=".18" fill="#8b6f3f">
    <circle cx="91" cy="74" r="2"/><circle cx="430" cy="50" r="2"/><circle cx="784" cy="112" r="2"/>
    <circle cx="1006" cy="940" r="2"/><circle cx="188" cy="1290" r="2"/><circle cx="602" cy="1332" r="2"/>
  </g>
  <text x="70" y="124" font-size="82" font-weight="900" fill="#d9412e" font-family="KaiTi, Microsoft YaHei">今天也</text>
  <text x="70" y="218" font-size="88" font-weight="900" fill="#143d35" font-family="KaiTi, Microsoft YaHei">算出门了</text>
  <path d="M72 252 C190 226, 320 264, 482 234" fill="none" stroke="#79a564" stroke-width="9" stroke-linecap="round"/>
  <text x="74" y="304" font-size="30" font-weight="800" fill="#143d35" font-family="KaiTi, Microsoft YaHei">阳光正好出门走 · 30 min · 1.6 km</text>
  <text x="74" y="358" font-size="34" font-weight="900" fill="#d9412e" font-family="Microsoft YaHei">爽活迹</text>
  <text x="188" y="358" font-size="32" font-weight="900" fill="#143d35" font-family="Comic Sans MS, Microsoft YaHei">Schoolwalk</text>
  <circle cx="955" cy="84" r="38" fill="#ffe38a"/>
  <path d="M955 30V12M955 156v-18M901 84h-18M1028 84h-18M916 45l-13-13M1007 136l-13-13M916 123l-13 13M1007 32l-13 13" stroke="#f5b833" stroke-width="7" stroke-linecap="round"/>
  <text x="936" y="96" font-size="34" fill="#143d35">☺</text>

  <rect x="54" y="396" width="330" height="318" rx="30" fill="#fffdf6" stroke="#b9d7c7" stroke-width="3" stroke-dasharray="10 9"/>
  <rect x="118" y="430" width="200" height="48" rx="24" fill="#2f7d4d"/>
  <text x="146" y="463" font-size="28" font-weight="900" fill="#fff8e8" font-family="KaiTi, Microsoft YaHei">今日爽活数据</text>
  <text x="150" y="542" font-size="42" font-weight="900" fill="#143d35" font-family="Comic Sans MS, Microsoft YaHei">30 min</text>
  <text x="150" y="584" font-size="26" font-weight="800" fill="#2f7d4d" font-family="KaiTi, Microsoft YaHei">慢慢走</text>
  <text x="150" y="654" font-size="42" font-weight="900" fill="#143d35" font-family="Comic Sans MS, Microsoft YaHei">1.6 km</text>
  <text x="150" y="696" font-size="26" font-weight="800" fill="#2f7d4d" font-family="KaiTi, Microsoft YaHei">不赶路</text>
  <circle cx="100" cy="530" r="32" fill="#ffe9a8"/><text x="86" y="541" font-size="34" fill="#79a564">♙</text>
  <circle cx="100" cy="644" r="32" fill="#ffe9a8"/><text x="88" y="656" font-size="34" fill="#f97316">●</text>

  <rect x="414" y="392" width="612" height="470" rx="34" fill="#fffdf6" stroke="#b9d7c7" stroke-width="4"/>
  <rect x="434" y="412" width="572" height="430" rx="26" fill="#dceee6"/>
  <path d="M434 842 L1006 412" stroke="#b9d7c7" stroke-width="3" opacity=".45"/>
  <text x="610" y="636" text-anchor="middle" font-size="40" font-weight="900" fill="#2f7d4d" font-family="KaiTi, Microsoft YaHei">主照片</text>
  <rect x="468" y="754" width="330" height="62" rx="18" fill="#fffdf6" opacity=".94"/>
  <text x="492" y="794" font-size="29" font-weight="900" fill="#143d35" font-family="KaiTi, Microsoft YaHei">走进绿意里，给心情充个电</text>

  <rect x="54" y="894" width="972" height="170" rx="30" fill="#fffdf6" stroke="#b9d7c7" stroke-width="3" stroke-dasharray="10 9"/>
  <rect x="84" y="930" width="174" height="46" rx="23" fill="#2f7d4d"/>
  <text x="112" y="962" font-size="27" font-weight="900" fill="#fff8e8" font-family="KaiTi, Microsoft YaHei">打卡路线图</text>
  <path d="M130 1018 C260 950, 390 1070, 520 1010 S780 940, 940 1018" fill="none" stroke="#79a564" stroke-width="6" stroke-linecap="round" stroke-dasharray="14 14"/>
  <g font-family="Microsoft YaHei" font-weight="900">
    <circle cx="130" cy="1018" r="24" fill="#fffdf6" stroke="#1f8b70" stroke-width="6"/><text x="123" y="1027" font-size="24" fill="#143d35">1</text>
    <rect x="184" y="980" width="70" height="34" rx="17" fill="#ffe2a6"/><text x="198" y="1004" font-size="19" fill="#f97316">8min</text>
    <circle cx="350" cy="1016" r="24" fill="#fffdf6" stroke="#1f8b70" stroke-width="6"/><text x="343" y="1025" font-size="24" fill="#143d35">2</text>
    <rect x="430" y="1034" width="76" height="34" rx="17" fill="#ffe2a6"/><text x="444" y="1058" font-size="19" fill="#f97316">12min</text>
    <circle cx="600" cy="1002" r="24" fill="#fffdf6" stroke="#1f8b70" stroke-width="6"/><text x="593" y="1011" font-size="24" fill="#143d35">3</text>
    <rect x="696" y="978" width="76" height="34" rx="17" fill="#ffe2a6"/><text x="710" y="1002" font-size="19" fill="#f97316">10min</text>
    <circle cx="940" cy="1018" r="24" fill="#fffdf6" stroke="#1f8b70" stroke-width="6"/><text x="933" y="1027" font-size="24" fill="#143d35">4</text>
  </g>

  <rect x="54" y="1090" width="438" height="224" rx="30" fill="#fffdf6" stroke="#b9d7c7" stroke-width="4"/>
  <rect x="72" y="1108" width="402" height="188" rx="22" fill="#d8e8f4"/>
  <text x="238" y="1210" text-anchor="middle" font-size="32" font-weight="900" fill="#2f7d4d" font-family="KaiTi, Microsoft YaHei">小图 1</text>
  <rect x="536" y="1090" width="488" height="224" rx="30" fill="#fffdf6" stroke="#b9d7c7" stroke-width="4"/>
  <rect x="554" y="1108" width="452" height="188" rx="22" fill="#f5e0c5"/>
  <text x="780" y="1210" text-anchor="middle" font-size="32" font-weight="900" fill="#2f7d4d" font-family="KaiTi, Microsoft YaHei">小图 2</text>
  <text x="310" y="1350" font-size="34" font-weight="900" fill="#143d35" font-family="KaiTi, Microsoft YaHei">不卷步数，只记录一次出门回血</text>
  <rect x="250" y="1382" width="170" height="46" rx="23" fill="#ddeedc"/><text x="284" y="1413" font-size="25" font-weight="900" fill="#2f7d4d">#散步</text>
  <rect x="438" y="1382" width="170" height="46" rx="23" fill="#ffe2a6"/><text x="470" y="1413" font-size="25" font-weight="900" fill="#2f7d4d">#回血中</text>
  <rect x="626" y="1382" width="170" height="46" rx="23" fill="#ffd2cc"/><text x="660" y="1413" font-size="25" font-weight="900" fill="#d9412e">#校园</text>
</svg>
