<svg xmlns="http://www.w3.org/2000/svg" width="1080" height="1440" viewBox="0 0 1080 1440">
  <rect width="1080" height="1440" fill="#fff8e8"/>
  <text x="70" y="126" font-size="76" font-weight="900" fill="#2f7d4d" font-family="KaiTi, Microsoft YaHei">今日校园</text>
  <text x="70" y="212" font-size="86" font-weight="900" fill="#f97316" font-family="KaiTi, Microsoft YaHei">路线手账</text>
  <text x="76" y="266" font-size="30" font-weight="800" fill="#2f7d4d" font-family="KaiTi, Microsoft YaHei">不卷步数，只记录一次出门回血</text>
  <circle cx="972" cy="88" r="34" fill="#ffe38a"/><text x="954" y="101" font-size="34" fill="#143d35">☺</text>
  <path d="M280 372 C440 300, 610 450, 790 360 S920 570, 790 626 S470 530, 280 640 S130 835, 280 900 S612 810, 790 900" fill="none" stroke="#79a564" stroke-width="7" stroke-linecap="round" stroke-dasharray="16 14" opacity=".9"/>
  <g font-family="Microsoft YaHei" font-weight="900">
    <rect x="250" y="326" width="72" height="34" rx="17" fill="#ffe2a6"/><text x="264" y="350" font-size="19" fill="#f97316">0min</text>
    <rect x="510" y="330" width="78" height="34" rx="17" fill="#ffe2a6"/><text x="524" y="354" font-size="19" fill="#f97316">6min</text>
    <rect x="806" y="502" width="86" height="34" rx="17" fill="#ffe2a6"/><text x="820" y="526" font-size="19" fill="#f97316">12min</text>
    <rect x="520" y="612" width="86" height="34" rx="17" fill="#ffe2a6"/><text x="534" y="636" font-size="19" fill="#f97316">18min</text>
    <rect x="230" y="790" width="86" height="34" rx="17" fill="#ffe2a6"/><text x="244" y="814" font-size="19" fill="#f97316">24min</text>
    <rect x="800" y="790" width="86" height="34" rx="17" fill="#ffe2a6"/><text x="814" y="814" font-size="19" fill="#f97316">30min</text>
  </g>
  <g font-family="KaiTi, Microsoft YaHei" font-weight="900">
    <g><rect x="54" y="310" width="454" height="220" rx="28" fill="#fffdf6" stroke="#b9d7c7" stroke-width="4"/><rect x="74" y="330" width="414" height="150" rx="20" fill="#dceee6"/><circle cx="92" cy="338" r="24" fill="#2f7d4d"/><text x="85" y="347" font-size="24" fill="#fff8e8">1</text><rect x="96" y="462" width="240" height="46" rx="16" fill="#fffdf6"/><text x="116" y="493" font-size="25" fill="#143d35">从图书馆出发｜0min</text></g>
    <g><rect x="572" y="310" width="454" height="220" rx="28" fill="#fffdf6" stroke="#b9d7c7" stroke-width="4"/><rect x="592" y="330" width="414" height="150" rx="20" fill="#d8e8f4"/><circle cx="610" cy="338" r="24" fill="#2f7d4d"/><text x="603" y="347" font-size="24" fill="#fff8e8">2</text><rect x="614" y="462" width="230" height="46" rx="16" fill="#fffdf6"/><text x="634" y="493" font-size="25" fill="#143d35">沿湖慢走｜6min</text></g>
    <g><rect x="572" y="568" width="454" height="220" rx="28" fill="#fffdf6" stroke="#b9d7c7" stroke-width="4"/><rect x="592" y="588" width="414" height="150" rx="20" fill="#f5e0c5"/><circle cx="610" cy="596" r="24" fill="#2f7d4d"/><text x="603" y="605" font-size="24" fill="#fff8e8">3</text><rect x="614" y="720" width="230" height="46" rx="16" fill="#fffdf6"/><text x="634" y="751" font-size="25" fill="#143d35">偶遇猫猫｜12min</text></g>
    <g><rect x="54" y="568" width="454" height="220" rx="28" fill="#fffdf6" stroke="#b9d7c7" stroke-width="4"/><rect x="74" y="588" width="414" height="150" rx="20" fill="#ffe9a8"/><circle cx="92" cy="596" r="24" fill="#2f7d4d"/><text x="85" y="605" font-size="24" fill="#fff8e8">4</text><rect x="96" y="720" width="230" height="46" rx="16" fill="#fffdf6"/><text x="116" y="751" font-size="25" fill="#143d35">买杯喝的｜18min</text></g>
    <g><rect x="54" y="826" width="454" height="220" rx="28" fill="#fffdf6" stroke="#b9d7c7" stroke-width="4"/><rect x="74" y="846" width="414" height="150" rx="20" fill="#dceee6"/><circle cx="92" cy="854" r="24" fill="#2f7d4d"/><text x="85" y="863" font-size="24" fill="#fff8e8">5</text><rect x="96" y="978" width="230" height="46" rx="16" fill="#fffdf6"/><text x="116" y="1009" font-size="25" fill="#143d35">路过钟楼｜24min</text></g>
    <g><rect x="572" y="826" width="454" height="220" rx="28" fill="#fffdf6" stroke="#b9d7c7" stroke-width="4"/><rect x="592" y="846" width="414" height="150" rx="20" fill="#f5d6c0"/><circle cx="610" cy="854" r="24" fill="#2f7d4d"/><text x="603" y="863" font-size="24" fill="#fff8e8">6</text><rect x="614" y="978" width="230" height="46" rx="16" fill="#fffdf6"/><text x="634" y="1009" font-size="25" fill="#143d35">落日收尾｜30min</text></g>
  </g>
  <rect x="74" y="1105" width="932" height="190" rx="32" fill="#fffdf6" stroke="#b9d7c7" stroke-width="3" stroke-dasharray="10 9"/>
  <text x="112" y="1160" font-size="30" font-weight="900" fill="#fff8e8" font-family="KaiTi, Microsoft YaHei"><tspan fill="#2f7d4d">本次路线小地图</tspan></text>
  <path d="M150 1230 C280 1170, 410 1260, 540 1225 S780 1176, 930 1232" fill="none" stroke="#79a564" stroke-width="6" stroke-linecap="round" stroke-dasharray="14 14"/>
  <text x="264" y="1205" font-size="21" font-weight="900" fill="#f97316">6min</text><text x="510" y="1268" font-size="21" font-weight="900" fill="#f97316">12min</text><text x="758" y="1205" font-size="21" font-weight="900" fill="#f97316">12min</text>
  <text x="264" y="1360" font-size="32" font-weight="900" fill="#143d35" font-family="KaiTi, Microsoft YaHei">边走边拍，一键生成校园 Walk 分享图</text>
</svg>
