<svg xmlns="http://www.w3.org/2000/svg" viewBox="0 0 516 516"><rect fill="#fffaf0" width="516" height="516"/><path fill="#075f51" d="M36,36h12v12h-12zM48,36h12v12h-12zM60,36h12v12h-12zM72,36h12v12h-12zM84,36h12v12h-12zM96,36h12v12h-12zM108,36h12v12h-12zM132,36h12v12h-12zM156,36h12v12h-12zM180,36h12v12h-12zM204,36h12v12h-12zM216,36h12v12h-12zM228,36h12v12h-12zM240,36h12v12h-12zM264,36h12v12h-12zM300,36h12v12h-12zM348,36h12v12h-12zM396,36h12v12h-12zM408,36h12v12h-12zM420,36h12v12h-12zM432,36h12v12h-12zM444,36h12v12h-12zM456,36h12v12h-12zM468,36h12v12h-12zM36,48h12v12h-12zM108,48h12v12h-12zM192,48h12v12h-12zM216,48h12v12h-12zM228,48h12v12h-12zM240,48h12v12h-12zM252,48h12v12h-12zM276,48h12v12h-12zM288,48h12v12h-12zM336,48h12v12h-12zM348,48h12v12h-12zM396,48h12v12h-12zM468,48h12v12h-12zM36,60h12v12h-12zM60,60h12v12h-12zM72,60h12v12h-12zM84,60h12v12h-12zM108,60h12v12h-12zM132,60h12v12h-12zM156,60h12v12h-12zM168,60h12v12h-12zM204,60h12v12h-12zM216,60h12v12h-12zM240,60h12v12h-12zM252,60h12v12h-12zM312,60h12v12h-12zM324,60h12v12h-12zM360,60h12v12h-12zM372,60h12v12h-12zM396,60h12v12h-12zM420,60h12v12h-12zM432,60h12v12h-12zM444,60h12v12h-12zM468,60h12v12h-12zM36,72h12v12h-12zM60,72h12v12h-12zM72,72h12v12h-12zM84,72h12v12h-12zM108,72h12v12h-12zM144,72h12v12h-12zM156,72h12v12h-12zM168,72h12v12h-12zM180,72h12v12h-12zM192,72h12v12h-12zM216,72h12v12h-12zM252,72h12v12h-12zM264,72h12v12h-12zM312,72h12v12h-12zM336,72h12v12h-12zM372,72h12v12h-12zM396,72h12v12h-12zM420,72h12v12h-12zM432,72h12v12h-12zM444,72h12v12h-12zM468,72h12v12h-12zM36,84h12v12h-12zM60,84h12v12h-12zM72,84h12v12h-12zM84,84h12v12h-12zM108,84h12v12h-12zM132,84h12v12h-12zM168,84h12v12h-12zM180,84h12v12h-12zM192,84h12v12h-12zM204,84h12v12h-12zM228,84h12v12h-12zM240,84h12v12h-12zM252,84h12v12h-12zM264,84h12v12h-12zM336,84h12v12h-12zM396,84h12v12h-12zM420,84h12v12h-12zM432,84h12v12h-12zM444,84h12v12h-12zM468,84h12v12h-12zM36,96h12v12h-12zM108,96h12v12h-12zM144,96h12v12h-12zM156,96h12v12h-12zM168,96h12v12h-12zM180,96h12v12h-12zM252,96h12v12h-12zM264,96h12v12h-12zM276,96h12v12h-12zM336,96h12v12h-12zM348,96h12v12h-12zM372,96h12v12h-12zM396,96h12v12h-12zM468,96h12v12h-12zM36,108h12v12h-12zM48,108h12v12h-12zM60,108h12v12h-12zM72,108h12v12h-12zM84,108h12v12h-12zM96,108h12v12h-12zM108,108h12v12h-12zM132,108h12v12h-12zM156,108h12v12h-12zM180,108h12v12h-12zM204,108h12v12h-12zM228,108h12v12h-12zM252,108h12v12h-12zM276,108h12v12h-12zM300,108h12v12h-12zM324,108h12v12h-12zM348,108h12v12h-12zM372,108h12v12h-12zM396,108h12v12h-12zM408,108h12v12h-12zM420,108h12v12h-12zM432,108h12v12h-12zM444,108h12v12h-12zM456,108h12v12h-12zM468,108h12v12h-12zM132,120h12v12h-12zM144,120h12v12h-12zM156,120h12v12h-12zM180,120h12v12h-12zM192,120h12v12h-12zM204,120h12v12h-12zM228,120h12v12h-12zM252,120h12v12h-12zM264,120h12v12h-12zM276,120h12v12h-12zM300,120h12v12h-12zM312,120h12v12h-12zM336,120h12v12h-12zM360,120h12v12h-12zM372,120h12v12h-12zM96,132h12v12h-12zM108,132h12v12h-12zM156,132h12v12h-12zM180,132h12v12h-12zM228,132h12v12h-12zM264,132h12v12h-12zM276,132h12v12h-12zM312,132h12v12h-12zM348,132h12v12h-12zM396,132h12v12h-12zM420,132h12v12h-12zM444,132h12v12h-12zM468,132h12v12h-12zM36,144h12v12h-12zM48,144h12v12h-12zM60,144h12v12h-12zM72,144h12v12h-12zM84,144h12v12h-12zM96,144h12v12h-12zM156,144h12v12h-12zM180,144h12v12h-12zM276,144h12v12h-12zM288,144h12v12h-12zM324,144h12v12h-12zM336,144h12v12h-12zM348,144h12v12h-12zM372,144h12v12h-12zM384,144h12v12h-12zM408,144h12v12h-12zM420,144h12v12h-12zM432,144h12v12h-12zM444,144h12v12h-12zM48,156h12v12h-12zM60,156h12v12h-12zM72,156h12v12h-12zM108,156h12v12h-12zM120,156h12v12h-12zM132,156h12v12h-12zM180,156h12v12h-12zM192,156h12v12h-12zM204,156h12v12h-12zM228,156h12v12h-12zM240,156h12v12h-12zM252,156h12v12h-12zM276,156h12v12h-12zM300,156h12v12h-12zM312,156h12v12h-12zM336,156h12v12h-12zM348,156h12v12h-12zM360,156h12v12h-12zM372,156h12v12h-12zM396,156h12v12h-12zM408,156h12v12h-12zM432,156h12v12h-12zM444,156h12v12h-12zM456,156h12v12h-12zM468,156h12v12h-12zM36,168h12v12h-12zM60,168h12v12h-12zM72,168h12v12h-12zM84,168h12v12h-12zM120,168h12v12h-12zM132,168h12v12h-12zM144,168h12v12h-12zM156,168h12v12h-12zM168,168h12v12h-12zM192,168h12v12h-12zM204,168h12v12h-12zM240,168h12v12h-12zM252,168h12v12h-12zM264,168h12v12h-12zM300,168h12v12h-12zM312,168h12v12h-12zM324,168h12v12h-12zM348,168h12v12h-12zM360,168h12v12h-12zM372,168h12v12h-12zM396,168h12v12h-12zM432,168h12v12h-12zM456,168h12v12h-12zM36,180h12v12h-12zM48,180h12v12h-12zM60,180h12v12h-12zM84,180h12v12h-12zM96,180h12v12h-12zM108,180h12v12h-12zM156,180h12v12h-12zM192,180h12v12h-12zM228,180h12v12h-12zM240,180h12v12h-12zM252,180h12v12h-12zM276,180h12v12h-12zM312,180h12v12h-12zM324,180h12v12h-12zM372,180h12v12h-12zM396,180h12v12h-12zM456,180h12v12h-12zM468,180h12v12h-12zM36,192h12v12h-12zM48,192h12v12h-12zM84,192h12v12h-12zM96,192h12v12h-12zM120,192h12v12h-12zM204,192h12v12h-12zM216,192h12v12h-12zM228,192h12v12h-12zM288,192h12v12h-12zM348,192h12v12h-12zM360,192h12v12h-12zM372,192h12v12h-12zM384,192h12v12h-12zM444,192h12v12h-12zM36,204h12v12h-12zM48,204h12v12h-12zM108,204h12v12h-12zM132,204h12v12h-12zM144,204h12v12h-12zM168,204h12v12h-12zM192,204h12v12h-12zM204,204h12v12h-12zM228,204h12v12h-12zM264,204h12v12h-12zM300,204h12v12h-12zM312,204h12v12h-12zM324,204h12v12h-12zM348,204h12v12h-12zM360,204h12v12h-12zM420,204h12v12h-12zM432,204h12v12h-12zM456,204h12v12h-12zM468,204h12v12h-12zM48,216h12v12h-12zM72,216h12v12h-12zM96,216h12v12h-12zM156,216h12v12h-12zM180,216h12v12h-12zM204,216h12v12h-12zM216,216h12v12h-12zM228,216h12v12h-12zM240,216h12v12h-12zM264,216h12v12h-12zM312,216h12v12h-12zM360,216h12v12h-12zM384,216h12v12h-12zM408,216h12v12h-12zM420,216h12v12h-12zM432,216h12v12h-12zM444,216h12v12h-12zM456,216h12v12h-12zM468,216h12v12h-12zM36,228h12v12h-12zM84,228h12v12h-12zM96,228h12v12h-12zM108,228h12v12h-12zM120,228h12v12h-12zM156,228h12v12h-12zM168,228h12v12h-12zM192,228h12v12h-12zM204,228h12v12h-12zM216,228h12v12h-12zM228,228h12v12h-12zM264,228h12v12h-12zM288,228h12v12h-12zM336,228h12v12h-12zM348,228h12v12h-12zM372,228h12v12h-12zM384,228h12v12h-12zM396,228h12v12h-12zM420,228h12v12h-12zM444,228h12v12h-12zM48,240h12v12h-12zM96,240h12v12h-12zM168,240h12v12h-12zM240,240h12v12h-12zM252,240h12v12h-12zM360,240h12v12h-12zM372,240h12v12h-12zM408,240h12v12h-12zM432,240h12v12h-12zM48,252h12v12h-12zM84,252h12v12h-12zM96,252h12v12h-12zM108,252h12v12h-12zM120,252h12v12h-12zM156,252h12v12h-12zM168,252h12v12h-12zM288,252h12v12h-12zM312,252h12v12h-12zM324,252h12v12h-12zM336,252h12v12h-12zM360,252h12v12h-12zM372,252h12v12h-12zM384,252h12v12h-12zM396,252h12v12h-12zM420,252h12v12h-12zM444,252h12v12h-12zM468,252h12v12h-12zM36,264h12v12h-12zM72,264h12v12h-12zM120,264h12v12h-12zM168,264h12v12h-12zM204,264h12v12h-12zM228,264h12v12h-12zM240,264h12v12h-12zM252,264h12v12h-12zM264,264h12v12h-12zM276,264h12v12h-12zM288,264h12v12h-12zM300,264h12v12h-12zM348,264h12v12h-12zM372,264h12v12h-12zM384,264h12v12h-12zM396,264h12v12h-12zM408,264h12v12h-12zM420,264h12v12h-12zM432,264h12v12h-12zM468,264h12v12h-12zM36,276h12v12h-12zM60,276h12v12h-12zM84,276h12v12h-12zM108,276h12v12h-12zM120,276h12v12h-12zM132,276h12v12h-12zM156,276h12v12h-12zM168,276h12v12h-12zM180,276h12v12h-12zM192,276h12v12h-12zM228,276h12v12h-12zM240,276h12v12h-12zM264,276h12v12h-12zM276,276h12v12h-12zM300,276h12v12h-12zM312,276h12v12h-12zM336,276h12v12h-12zM348,276h12v12h-12zM360,276h12v12h-12zM396,276h12v12h-12zM408,276h12v12h-12zM420,276h12v12h-12zM444,276h12v12h-12zM60,288h12v12h-12zM96,288h12v12h-12zM120,288h12v12h-12zM132,288h12v12h-12zM156,288h12v12h-12zM168,288h12v12h-12zM180,288h12v12h-12zM204,288h12v12h-12zM216,288h12v12h-12zM228,288h12v12h-12zM240,288h12v12h-12zM264,288h12v12h-12zM360,288h12v12h-12zM372,288h12v12h-12zM384,288h12v12h-12zM408,288h12v12h-12zM420,288h12v12h-12zM432,288h12v12h-12zM444,288h12v12h-12zM60,300h12v12h-12zM108,300h12v12h-12zM132,300h12v12h-12zM144,300h12v12h-12zM168,300h12v12h-12zM192,300h12v12h-12zM228,300h12v12h-12zM252,300h12v12h-12zM264,300h12v12h-12zM300,300h12v12h-12zM324,300h12v12h-12zM360,300h12v12h-12zM396,300h12v12h-12zM456,300h12v12h-12zM468,300h12v12h-12zM36,312h12v12h-12zM84,312h12v12h-12zM96,312h12v12h-12zM120,312h12v12h-12zM132,312h12v12h-12zM144,312h12v12h-12zM156,312h12v12h-12zM168,312h12v12h-12zM180,312h12v12h-12zM216,312h12v12h-12zM264,312h12v12h-12zM276,312h12v12h-12zM300,312h12v12h-12zM312,312h12v12h-12zM324,312h12v12h-12zM348,312h12v12h-12zM360,312h12v12h-12zM396,312h12v12h-12zM408,312h12v12h-12zM456,312h12v12h-12zM468,312h12v12h-12zM36,324h12v12h-12zM60,324h12v12h-12zM72,324h12v12h-12zM96,324h12v12h-12zM108,324h12v12h-12zM120,324h12v12h-12zM144,324h12v12h-12zM192,324h12v12h-12zM216,324h12v12h-12zM252,324h12v12h-12zM276,324h12v12h-12zM300,324h12v12h-12zM312,324h12v12h-12zM336,324h12v12h-12zM348,324h12v12h-12zM372,324h12v12h-12zM396,324h12v12h-12zM408,324h12v12h-12zM456,324h12v12h-12zM36,336h12v12h-12zM48,336h12v12h-12zM84,336h12v12h-12zM132,336h12v12h-12zM156,336h12v12h-12zM192,336h12v12h-12zM204,336h12v12h-12zM216,336h12v12h-12zM228,336h12v12h-12zM288,336h12v12h-12zM300,336h12v12h-12zM324,336h12v12h-12zM348,336h12v12h-12zM360,336h12v12h-12zM384,336h12v12h-12zM408,336h12v12h-12zM444,336h12v12h-12zM456,336h12v12h-12zM36,348h12v12h-12zM60,348h12v12h-12zM72,348h12v12h-12zM84,348h12v12h-12zM96,348h12v12h-12zM108,348h12v12h-12zM120,348h12v12h-12zM132,348h12v12h-12zM156,348h12v12h-12zM168,348h12v12h-12zM180,348h12v12h-12zM240,348h12v12h-12zM252,348h12v12h-12zM264,348h12v12h-12zM360,348h12v12h-12zM396,348h12v12h-12zM420,348h12v12h-12zM468,348h12v12h-12zM36,360h12v12h-12zM60,360h12v12h-12zM84,360h12v12h-12zM96,360h12v12h-12zM120,360h12v12h-12zM156,360h12v12h-12zM168,360h12v12h-12zM228,360h12v12h-12zM240,360h12v12h-12zM276,360h12v12h-12zM300,360h12v12h-12zM324,360h12v12h-12zM372,360h12v12h-12zM384,360h12v12h-12zM408,360h12v12h-12zM444,360h12v12h-12zM456,360h12v12h-12zM468,360h12v12h-12zM36,372h12v12h-12zM60,372h12v12h-12zM84,372h12v12h-12zM96,372h12v12h-12zM108,372h12v12h-12zM120,372h12v12h-12zM132,372h12v12h-12zM168,372h12v12h-12zM180,372h12v12h-12zM192,372h12v12h-12zM204,372h12v12h-12zM240,372h12v12h-12zM252,372h12v12h-12zM264,372h12v12h-12zM276,372h12v12h-12zM324,372h12v12h-12zM336,372h12v12h-12zM348,372h12v12h-12zM360,372h12v12h-12zM372,372h12v12h-12zM384,372h12v12h-12zM396,372h12v12h-12zM408,372h12v12h-12zM420,372h12v12h-12zM432,372h12v12h-12zM444,372h12v12h-12zM456,372h12v12h-12zM132,384h12v12h-12zM144,384h12v12h-12zM168,384h12v12h-12zM204,384h12v12h-12zM216,384h12v12h-12zM252,384h12v12h-12zM264,384h12v12h-12zM276,384h12v12h-12zM288,384h12v12h-12zM300,384h12v12h-12zM312,384h12v12h-12zM336,384h12v12h-12zM348,384h12v12h-12zM372,384h12v12h-12zM420,384h12v12h-12zM432,384h12v12h-12zM36,396h12v12h-12zM48,396h12v12h-12zM60,396h12v12h-12zM72,396h12v12h-12zM84,396h12v12h-12zM96,396h12v12h-12zM108,396h12v12h-12zM144,396h12v12h-12zM168,396h12v12h-12zM180,396h12v12h-12zM192,396h12v12h-12zM204,396h12v12h-12zM228,396h12v12h-12zM252,396h12v12h-12zM264,396h12v12h-12zM276,396h12v12h-12zM300,396h12v12h-12zM312,396h12v12h-12zM324,396h12v12h-12zM372,396h12v12h-12zM396,396h12v12h-12zM420,396h12v12h-12zM432,396h12v12h-12zM444,396h12v12h-12zM468,396h12v12h-12zM36,408h12v12h-12zM108,408h12v12h-12zM132,408h12v12h-12zM144,408h12v12h-12zM180,408h12v12h-12zM204,408h12v12h-12zM228,408h12v12h-12zM264,408h12v12h-12zM276,408h12v12h-12zM288,408h12v12h-12zM300,408h12v12h-12zM372,408h12v12h-12zM420,408h12v12h-12zM432,408h12v12h-12zM456,408h12v12h-12zM468,408h12v12h-12zM36,420h12v12h-12zM60,420h12v12h-12zM72,420h12v12h-12zM84,420h12v12h-12zM108,420h12v12h-12zM144,420h12v12h-12zM156,420h12v12h-12zM168,420h12v12h-12zM204,420h12v12h-12zM216,420h12v12h-12zM252,420h12v12h-12zM300,420h12v12h-12zM312,420h12v12h-12zM324,420h12v12h-12zM336,420h12v12h-12zM360,420h12v12h-12zM372,420h12v12h-12zM384,420h12v12h-12zM396,420h12v12h-12zM408,420h12v12h-12zM420,420h12v12h-12zM444,420h12v12h-12zM456,420h12v12h-12zM468,420h12v12h-12zM36,432h12v12h-12zM60,432h12v12h-12zM72,432h12v12h-12zM84,432h12v12h-12zM108,432h12v12h-12zM144,432h12v12h-12zM168,432h12v12h-12zM180,432h12v12h-12zM204,432h12v12h-12zM216,432h12v12h-12zM228,432h12v12h-12zM240,432h12v12h-12zM264,432h12v12h-12zM276,432h12v12h-12zM288,432h12v12h-12zM300,432h12v12h-12zM348,432h12v12h-12zM360,432h12v12h-12zM372,432h12v12h-12zM396,432h12v12h-12zM432,432h12v12h-12zM444,432h12v12h-12zM36,444h12v12h-12zM60,444h12v12h-12zM72,444h12v12h-12zM84,444h12v12h-12zM108,444h12v12h-12zM156,444h12v12h-12zM204,444h12v12h-12zM216,444h12v12h-12zM240,444h12v12h-12zM312,444h12v12h-12zM324,444h12v12h-12zM348,444h12v12h-12zM360,444h12v12h-12zM384,444h12v12h-12zM408,444h12v12h-12zM432,444h12v12h-12zM468,444h12v12h-12zM36,456h12v12h-12zM108,456h12v12h-12zM144,456h12v12h-12zM192,456h12v12h-12zM228,456h12v12h-12zM240,456h12v12h-12zM264,456h12v12h-12zM276,456h12v12h-12zM312,456h12v12h-12zM360,456h12v12h-12zM372,456h12v12h-12zM408,456h12v12h-12zM420,456h12v12h-12zM468,456h12v12h-12zM36,468h12v12h-12zM48,468h12v12h-12zM60,468h12v12h-12zM72,468h12v12h-12zM84,468h12v12h-12zM96,468h12v12h-12zM108,468h12v12h-12zM168,468h12v12h-12zM180,468h12v12h-12zM216,468h12v12h-12zM228,468h12v12h-12zM240,468h12v12h-12zM276,468h12v12h-12zM324,468h12v12h-12zM372,468h12v12h-12zM396,468h12v12h-12zM420,468h12v12h-12zM432,468h12v12h-12zM468,468h12v12h-12z"/></svg>