<svg xmlns="http://www.w3.org/2000/svg" viewBox="0 0 222 222" width="222" height="222" shape-rendering="crispEdges"><rect width="100%" height="100%" fill="#fffdf6"/><g fill="#063f32"><rect x="24" y="24" width="6" height="6"/><rect x="30" y="24" width="6" height="6"/><rect x="36" y="24" width="6" height="6"/><rect x="42" y="24" width="6" height="6"/><rect x="48" y="24" width="6" height="6"/><rect x="54" y="24" width="6" height="6"/><rect x="60" y="24" width="6" height="6"/><rect x="78" y="24" width="6" height="6"/><rect x="96" y="24" width="6" height="6"/><rect x="108" y="24" width="6" height="6"/><rect x="114" y="24" width="6" height="6"/><rect x="132" y="24" width="6" height="6"/><rect x="138" y="24" width="6" height="6"/><rect x="156" y="24" width="6" height="6"/><rect x="162" y="24" width="6" height="6"/><rect x="168" y="24" width="6" height="6"/><rect x="174" y="24" width="6" height="6"/><rect x="180" y="24" width="6" height="6"/><rect x="186" y="24" width="6" height="6"/><rect x="192" y="24" width="6" height="6"/><rect x="24" y="30" width="6" height="6"/><rect x="60" y="30" width="6" height="6"/><rect x="84" y="30" width="6" height="6"/><rect x="90" y="30" width="6" height="6"/><rect x="96" y="30" width="6" height="6"/><rect x="102" y="30" width="6" height="6"/><rect x="114" y="30" width="6" height="6"/><rect x="126" y="30" width="6" height="6"/><rect x="132" y="30" width="6" height="6"/><rect x="138" y="30" width="6" height="6"/><rect x="144" y="30" width="6" height="6"/><rect x="156" y="30" width="6" height="6"/><rect x="192" y="30" width="6" height="6"/><rect x="24" y="36" width="6" height="6"/><rect x="36" y="36" width="6" height="6"/><rect x="42" y="36" width="6" height="6"/><rect x="48" y="36" width="6" height="6"/><rect x="60" y="36" width="6" height="6"/><rect x="72" y="36" width="6" height="6"/><rect x="78" y="36" width="6" height="6"/><rect x="84" y="36" width="6" height="6"/><rect x="96" y="36" width="6" height="6"/><rect x="114" y="36" width="6" height="6"/><rect x="138" y="36" width="6" height="6"/><rect x="144" y="36" width="6" height="6"/><rect x="156" y="36" width="6" height="6"/><rect x="168" y="36" width="6" height="6"/><rect x="174" y="36" width="6" height="6"/><rect x="180" y="36" width="6" height="6"/><rect x="192" y="36" width="6" height="6"/><rect x="24" y="42" width="6" height="6"/><rect x="36" y="42" width="6" height="6"/><rect x="42" y="42" width="6" height="6"/><rect x="48" y="42" width="6" height="6"/><rect x="60" y="42" width="6" height="6"/><rect x="78" y="42" width="6" height="6"/><rect x="84" y="42" width="6" height="6"/><rect x="90" y="42" width="6" height="6"/><rect x="108" y="42" width="6" height="6"/><rect x="138" y="42" width="6" height="6"/><rect x="144" y="42" width="6" height="6"/><rect x="156" y="42" width="6" height="6"/><rect x="168" y="42" width="6" height="6"/><rect x="174" y="42" width="6" height="6"/><rect x="180" y="42" width="6" height="6"/><rect x="192" y="42" width="6" height="6"/><rect x="24" y="48" width="6" height="6"/><rect x="36" y="48" width="6" height="6"/><rect x="42" y="48" width="6" height="6"/><rect x="48" y="48" width="6" height="6"/><rect x="60" y="48" width="6" height="6"/><rect x="84" y="48" width="6" height="6"/><rect x="114" y="48" width="6" height="6"/><rect x="120" y="48" width="6" height="6"/><rect x="138" y="48" width="6" height="6"/><rect x="144" y="48" width="6" height="6"/><rect x="156" y="48" width="6" height="6"/><rect x="168" y="48" width="6" height="6"/><rect x="174" y="48" width="6" height="6"/><rect x="180" y="48" width="6" height="6"/><rect x="192" y="48" width="6" height="6"/><rect x="24" y="54" width="6" height="6"/><rect x="60" y="54" width="6" height="6"/><rect x="78" y="54" width="6" height="6"/><rect x="102" y="54" width="6" height="6"/><rect x="114" y="54" width="6" height="6"/><rect x="120" y="54" width="6" height="6"/><rect x="132" y="54" width="6" height="6"/><rect x="138" y="54" width="6" height="6"/><rect x="144" y="54" width="6" height="6"/><rect x="156" y="54" width="6" height="6"/><rect x="192" y="54" width="6" height="6"/><rect x="24" y="60" width="6" height="6"/><rect x="30" y="60" width="6" height="6"/><rect x="36" y="60" width="6" height="6"/><rect x="42" y="60" width="6" height="6"/><rect x="48" y="60" width="6" height="6"/><rect x="54" y="60" width="6" height="6"/><rect x="60" y="60" width="6" height="6"/><rect x="72" y="60" width="6" height="6"/><rect x="84" y="60" width="6" height="6"/><rect x="96" y="60" width="6" height="6"/><rect x="108" y="60" width="6" height="6"/><rect x="120" y="60" width="6" height="6"/><rect x="132" y="60" width="6" height="6"/><rect x="144" y="60" width="6" height="6"/><rect x="156" y="60" width="6" height="6"/><rect x="162" y="60" width="6" height="6"/><rect x="168" y="60" width="6" height="6"/><rect x="174" y="60" width="6" height="6"/><rect x="180" y="60" width="6" height="6"/><rect x="186" y="60" width="6" height="6"/><rect x="192" y="60" width="6" height="6"/><rect x="72" y="66" width="6" height="6"/><rect x="78" y="66" width="6" height="6"/><rect x="84" y="66" width="6" height="6"/><rect x="96" y="66" width="6" height="6"/><rect x="102" y="66" width="6" height="6"/><rect x="114" y="66" width="6" height="6"/><rect x="126" y="66" width="6" height="6"/><rect x="132" y="66" width="6" height="6"/><rect x="138" y="66" width="6" height="6"/><rect x="144" y="66" width="6" height="6"/><rect x="24" y="72" width="6" height="6"/><rect x="30" y="72" width="6" height="6"/><rect x="36" y="72" width="6" height="6"/><rect x="48" y="72" width="6" height="6"/><rect x="54" y="72" width="6" height="6"/><rect x="60" y="72" width="6" height="6"/><rect x="66" y="72" width="6" height="6"/><rect x="72" y="72" width="6" height="6"/><rect x="84" y="72" width="6" height="6"/><rect x="90" y="72" width="6" height="6"/><rect x="102" y="72" width="6" height="6"/><rect x="114" y="72" width="6" height="6"/><rect x="126" y="72" width="6" height="6"/><rect x="138" y="72" width="6" height="6"/><rect x="144" y="72" width="6" height="6"/><rect x="150" y="72" width="6" height="6"/><rect x="156" y="72" width="6" height="6"/><rect x="180" y="72" width="6" height="6"/><rect x="24" y="78" width="6" height="6"/><rect x="30" y="78" width="6" height="6"/><rect x="54" y="78" width="6" height="6"/><rect x="72" y="78" width="6" height="6"/><rect x="84" y="78" width="6" height="6"/><rect x="90" y="78" width="6" height="6"/><rect x="102" y="78" width="6" height="6"/><rect x="108" y="78" width="6" height="6"/><rect x="120" y="78" width="6" height="6"/><rect x="126" y="78" width="6" height="6"/><rect x="156" y="78" width="6" height="6"/><rect x="174" y="78" width="6" height="6"/><rect x="192" y="78" width="6" height="6"/><rect x="48" y="84" width="6" height="6"/><rect x="60" y="84" width="6" height="6"/><rect x="72" y="84" width="6" height="6"/><rect x="78" y="84" width="6" height="6"/><rect x="108" y="84" width="6" height="6"/><rect x="120" y="84" width="6" height="6"/><rect x="126" y="84" width="6" height="6"/><rect x="144" y="84" width="6" height="6"/><rect x="150" y="84" width="6" height="6"/><rect x="156" y="84" width="6" height="6"/><rect x="162" y="84" width="6" height="6"/><rect x="168" y="84" width="6" height="6"/><rect x="180" y="84" width="6" height="6"/><rect x="186" y="84" width="6" height="6"/><rect x="192" y="84" width="6" height="6"/><rect x="30" y="90" width="6" height="6"/><rect x="36" y="90" width="6" height="6"/><rect x="42" y="90" width="6" height="6"/><rect x="48" y="90" width="6" height="6"/><rect x="54" y="90" width="6" height="6"/><rect x="66" y="90" width="6" height="6"/><rect x="90" y="90" width="6" height="6"/><rect x="102" y="90" width="6" height="6"/><rect x="120" y="90" width="6" height="6"/><rect x="126" y="90" width="6" height="6"/><rect x="144" y="90" width="6" height="6"/><rect x="150" y="90" width="6" height="6"/><rect x="186" y="90" width="6" height="6"/><rect x="30" y="96" width="6" height="6"/><rect x="42" y="96" width="6" height="6"/><rect x="48" y="96" width="6" height="6"/><rect x="54" y="96" width="6" height="6"/><rect x="60" y="96" width="6" height="6"/><rect x="72" y="96" width="6" height="6"/><rect x="96" y="96" width="6" height="6"/><rect x="102" y="96" width="6" height="6"/><rect x="108" y="96" width="6" height="6"/><rect x="120" y="96" width="6" height="6"/><rect x="126" y="96" width="6" height="6"/><rect x="132" y="96" width="6" height="6"/><rect x="138" y="96" width="6" height="6"/><rect x="144" y="96" width="6" height="6"/><rect x="156" y="96" width="6" height="6"/><rect x="174" y="96" width="6" height="6"/><rect x="186" y="96" width="6" height="6"/><rect x="192" y="96" width="6" height="6"/><rect x="30" y="102" width="6" height="6"/><rect x="36" y="102" width="6" height="6"/><rect x="48" y="102" width="6" height="6"/><rect x="78" y="102" width="6" height="6"/><rect x="90" y="102" width="6" height="6"/><rect x="96" y="102" width="6" height="6"/><rect x="120" y="102" width="6" height="6"/><rect x="126" y="102" width="6" height="6"/><rect x="132" y="102" width="6" height="6"/><rect x="144" y="102" width="6" height="6"/><rect x="150" y="102" width="6" height="6"/><rect x="156" y="102" width="6" height="6"/><rect x="174" y="102" width="6" height="6"/><rect x="192" y="102" width="6" height="6"/><rect x="24" y="108" width="6" height="6"/><rect x="42" y="108" width="6" height="6"/><rect x="48" y="108" width="6" height="6"/><rect x="54" y="108" width="6" height="6"/><rect x="60" y="108" width="6" height="6"/><rect x="66" y="108" width="6" height="6"/><rect x="72" y="108" width="6" height="6"/><rect x="78" y="108" width="6" height="6"/><rect x="90" y="108" width="6" height="6"/><rect x="96" y="108" width="6" height="6"/><rect x="102" y="108" width="6" height="6"/><rect x="132" y="108" width="6" height="6"/><rect x="150" y="108" width="6" height="6"/><rect x="162" y="108" width="6" height="6"/><rect x="168" y="108" width="6" height="6"/><rect x="174" y="108" width="6" height="6"/><rect x="186" y="108" width="6" height="6"/><rect x="192" y="108" width="6" height="6"/><rect x="42" y="114" width="6" height="6"/><rect x="48" y="114" width="6" height="6"/><rect x="72" y="114" width="6" height="6"/><rect x="78" y="114" width="6" height="6"/><rect x="96" y="114" width="6" height="6"/><rect x="102" y="114" width="6" height="6"/><rect x="108" y="114" width="6" height="6"/><rect x="114" y="114" width="6" height="6"/><rect x="126" y="114" width="6" height="6"/><rect x="132" y="114" width="6" height="6"/><rect x="138" y="114" width="6" height="6"/><rect x="144" y="114" width="6" height="6"/><rect x="162" y="114" width="6" height="6"/><rect x="168" y="114" width="6" height="6"/><rect x="174" y="114" width="6" height="6"/><rect x="186" y="114" width="6" height="6"/><rect x="54" y="120" width="6" height="6"/><rect x="60" y="120" width="6" height="6"/><rect x="66" y="120" width="6" height="6"/><rect x="72" y="120" width="6" height="6"/><rect x="90" y="120" width="6" height="6"/><rect x="108" y="120" width="6" height="6"/><rect x="114" y="120" width="6" height="6"/><rect x="120" y="120" width="6" height="6"/><rect x="126" y="120" width="6" height="6"/><rect x="132" y="120" width="6" height="6"/><rect x="144" y="120" width="6" height="6"/><rect x="150" y="120" width="6" height="6"/><rect x="156" y="120" width="6" height="6"/><rect x="174" y="120" width="6" height="6"/><rect x="186" y="120" width="6" height="6"/><rect x="192" y="120" width="6" height="6"/><rect x="30" y="126" width="6" height="6"/><rect x="36" y="126" width="6" height="6"/><rect x="42" y="126" width="6" height="6"/><rect x="48" y="126" width="6" height="6"/><rect x="54" y="126" width="6" height="6"/><rect x="72" y="126" width="6" height="6"/><rect x="78" y="126" width="6" height="6"/><rect x="90" y="126" width="6" height="6"/><rect x="120" y="126" width="6" height="6"/><rect x="126" y="126" width="6" height="6"/><rect x="132" y="126" width="6" height="6"/><rect x="144" y="126" width="6" height="6"/><rect x="150" y="126" width="6" height="6"/><rect x="156" y="126" width="6" height="6"/><rect x="174" y="126" width="6" height="6"/><rect x="180" y="126" width="6" height="6"/><rect x="192" y="126" width="6" height="6"/><rect x="24" y="132" width="6" height="6"/><rect x="42" y="132" width="6" height="6"/><rect x="60" y="132" width="6" height="6"/><rect x="66" y="132" width="6" height="6"/><rect x="72" y="132" width="6" height="6"/><rect x="84" y="132" width="6" height="6"/><rect x="102" y="132" width="6" height="6"/><rect x="120" y="132" width="6" height="6"/><rect x="132" y="132" width="6" height="6"/><rect x="144" y="132" width="6" height="6"/><rect x="162" y="132" width="6" height="6"/><rect x="168" y="132" width="6" height="6"/><rect x="186" y="132" width="6" height="6"/><rect x="192" y="132" width="6" height="6"/><rect x="30" y="138" width="6" height="6"/><rect x="36" y="138" width="6" height="6"/><rect x="48" y="138" width="6" height="6"/><rect x="54" y="138" width="6" height="6"/><rect x="66" y="138" width="6" height="6"/><rect x="72" y="138" width="6" height="6"/><rect x="78" y="138" width="6" height="6"/><rect x="84" y="138" width="6" height="6"/><rect x="90" y="138" width="6" height="6"/><rect x="114" y="138" width="6" height="6"/><rect x="120" y="138" width="6" height="6"/><rect x="126" y="138" width="6" height="6"/><rect x="132" y="138" width="6" height="6"/><rect x="138" y="138" width="6" height="6"/><rect x="144" y="138" width="6" height="6"/><rect x="156" y="138" width="6" height="6"/><rect x="174" y="138" width="6" height="6"/><rect x="186" y="138" width="6" height="6"/><rect x="24" y="144" width="6" height="6"/><rect x="60" y="144" width="6" height="6"/><rect x="72" y="144" width="6" height="6"/><rect x="78" y="144" width="6" height="6"/><rect x="96" y="144" width="6" height="6"/><rect x="114" y="144" width="6" height="6"/><rect x="120" y="144" width="6" height="6"/><rect x="126" y="144" width="6" height="6"/><rect x="132" y="144" width="6" height="6"/><rect x="144" y="144" width="6" height="6"/><rect x="150" y="144" width="6" height="6"/><rect x="156" y="144" width="6" height="6"/><rect x="162" y="144" width="6" height="6"/><rect x="168" y="144" width="6" height="6"/><rect x="90" y="150" width="6" height="6"/><rect x="96" y="150" width="6" height="6"/><rect x="102" y="150" width="6" height="6"/><rect x="120" y="150" width="6" height="6"/><rect x="144" y="150" width="6" height="6"/><rect x="168" y="150" width="6" height="6"/><rect x="180" y="150" width="6" height="6"/><rect x="186" y="150" width="6" height="6"/><rect x="192" y="150" width="6" height="6"/><rect x="24" y="156" width="6" height="6"/><rect x="30" y="156" width="6" height="6"/><rect x="36" y="156" width="6" height="6"/><rect x="42" y="156" width="6" height="6"/><rect x="48" y="156" width="6" height="6"/><rect x="54" y="156" width="6" height="6"/><rect x="60" y="156" width="6" height="6"/><rect x="72" y="156" width="6" height="6"/><rect x="90" y="156" width="6" height="6"/><rect x="96" y="156" width="6" height="6"/><rect x="108" y="156" width="6" height="6"/><rect x="120" y="156" width="6" height="6"/><rect x="126" y="156" width="6" height="6"/><rect x="138" y="156" width="6" height="6"/><rect x="144" y="156" width="6" height="6"/><rect x="156" y="156" width="6" height="6"/><rect x="168" y="156" width="6" height="6"/><rect x="174" y="156" width="6" height="6"/><rect x="186" y="156" width="6" height="6"/><rect x="192" y="156" width="6" height="6"/><rect x="24" y="162" width="6" height="6"/><rect x="60" y="162" width="6" height="6"/><rect x="72" y="162" width="6" height="6"/><rect x="84" y="162" width="6" height="6"/><rect x="96" y="162" width="6" height="6"/><rect x="102" y="162" width="6" height="6"/><rect x="108" y="162" width="6" height="6"/><rect x="114" y="162" width="6" height="6"/><rect x="120" y="162" width="6" height="6"/><rect x="126" y="162" width="6" height="6"/><rect x="144" y="162" width="6" height="6"/><rect x="168" y="162" width="6" height="6"/><rect x="174" y="162" width="6" height="6"/><rect x="186" y="162" width="6" height="6"/><rect x="24" y="168" width="6" height="6"/><rect x="36" y="168" width="6" height="6"/><rect x="42" y="168" width="6" height="6"/><rect x="48" y="168" width="6" height="6"/><rect x="60" y="168" width="6" height="6"/><rect x="72" y="168" width="6" height="6"/><rect x="78" y="168" width="6" height="6"/><rect x="90" y="168" width="6" height="6"/><rect x="108" y="168" width="6" height="6"/><rect x="126" y="168" width="6" height="6"/><rect x="144" y="168" width="6" height="6"/><rect x="150" y="168" width="6" height="6"/><rect x="156" y="168" width="6" height="6"/><rect x="162" y="168" width="6" height="6"/><rect x="168" y="168" width="6" height="6"/><rect x="24" y="174" width="6" height="6"/><rect x="36" y="174" width="6" height="6"/><rect x="42" y="174" width="6" height="6"/><rect x="48" y="174" width="6" height="6"/><rect x="60" y="174" width="6" height="6"/><rect x="90" y="174" width="6" height="6"/><rect x="108" y="174" width="6" height="6"/><rect x="120" y="174" width="6" height="6"/><rect x="138" y="174" width="6" height="6"/><rect x="168" y="174" width="6" height="6"/><rect x="180" y="174" width="6" height="6"/><rect x="186" y="174" width="6" height="6"/><rect x="192" y="174" width="6" height="6"/><rect x="24" y="180" width="6" height="6"/><rect x="36" y="180" width="6" height="6"/><rect x="42" y="180" width="6" height="6"/><rect x="48" y="180" width="6" height="6"/><rect x="60" y="180" width="6" height="6"/><rect x="72" y="180" width="6" height="6"/><rect x="102" y="180" width="6" height="6"/><rect x="126" y="180" width="6" height="6"/><rect x="138" y="180" width="6" height="6"/><rect x="144" y="180" width="6" height="6"/><rect x="162" y="180" width="6" height="6"/><rect x="168" y="180" width="6" height="6"/><rect x="174" y="180" width="6" height="6"/><rect x="192" y="180" width="6" height="6"/><rect x="24" y="186" width="6" height="6"/><rect x="60" y="186" width="6" height="6"/><rect x="72" y="186" width="6" height="6"/><rect x="84" y="186" width="6" height="6"/><rect x="90" y="186" width="6" height="6"/><rect x="114" y="186" width="6" height="6"/><rect x="120" y="186" width="6" height="6"/><rect x="126" y="186" width="6" height="6"/><rect x="144" y="186" width="6" height="6"/><rect x="150" y="186" width="6" height="6"/><rect x="156" y="186" width="6" height="6"/><rect x="186" y="186" width="6" height="6"/><rect x="24" y="192" width="6" height="6"/><rect x="30" y="192" width="6" height="6"/><rect x="36" y="192" width="6" height="6"/><rect x="42" y="192" width="6" height="6"/><rect x="48" y="192" width="6" height="6"/><rect x="54" y="192" width="6" height="6"/><rect x="60" y="192" width="6" height="6"/><rect x="72" y="192" width="6" height="6"/><rect x="78" y="192" width="6" height="6"/><rect x="96" y="192" width="6" height="6"/><rect x="120" y="192" width="6" height="6"/><rect x="126" y="192" width="6" height="6"/><rect x="138" y="192" width="6" height="6"/><rect x="144" y="192" width="6" height="6"/><rect x="150" y="192" width="6" height="6"/><rect x="156" y="192" width="6" height="6"/><rect x="168" y="192" width="6" height="6"/><rect x="174" y="192" width="6" height="6"/><rect x="186" y="192" width="6" height="6"/><rect x="192" y="192" width="6" height="6"/></g></svg>
